<svg id="visual" viewBox="0 0 1920 1080" width="1920" height="1080" xmlns="http://www.w3.org/2000/svg" xmlns:xlink="http://www.w3.org/1999/xlink" version="1.1"><rect x="0" y="0" width="1920" height="1080" fill="#9ACBD0"></rect><path d="M0 479L45.7 475.3C91.3 471.7 182.7 464.3 274.2 499.8C365.7 535.3 457.3 613.7 548.8 613.7C640.3 613.7 731.7 535.3 823 511.2C914.3 487 1005.7 517 1097 557.3C1188.3 597.7 1279.7 648.3 1371.2 633C1462.7 617.7 1554.3 536.3 1645.8 533.2C1737.3 530 1828.7 605 1874.3 642.5L1920 680L1920 1081L1874.3 1081C1828.7 1081 1737.3 1081 1645.8 1081C1554.3 1081 1462.7 1081 1371.2 1081C1279.7 1081 1188.3 1081 1097 1081C1005.7 1081 914.3 1081 823 1081C731.7 1081 640.3 1081 548.8 1081C457.3 1081 365.7 1081 274.2 1081C182.7 1081 91.3 1081 45.7 1081L0 1081Z" fill="#48a6a7"></path><path d="M0 685L45.7 687.5C91.3 690 182.7 695 274.2 677.5C365.7 660 457.3 620 548.8 612.2C640.3 604.3 731.7 628.7 823 651C914.3 673.3 1005.7 693.7 1097 685.5C1188.3 677.3 1279.7 640.7 1371.2 645.7C1462.7 650.7 1554.3 697.3 1645.8 716.5C1737.3 735.7 1828.7 727.3 1874.3 723.2L1920 719L1920 1081L1874.3 1081C1828.7 1081 1737.3 1081 1645.8 1081C1554.3 1081 1462.7 1081 1371.2 1081C1279.7 1081 1188.3 1081 1097 1081C1005.7 1081 914.3 1081 823 1081C731.7 1081 640.3 1081 548.8 1081C457.3 1081 365.7 1081 274.2 1081C182.7 1081 91.3 1081 45.7 1081L0 1081Z" fill="#399699"></path><path d="M0 714L45.7 707C91.3 700 182.7 686 274.2 702.5C365.7 719 457.3 766 548.8 768.2C640.3 770.3 731.7 727.7 823 718C914.3 708.3 1005.7 731.7 1097 746.8C1188.3 762 1279.7 769 1371.2 777C1462.7 785 1554.3 794 1645.8 779.2C1737.3 764.3 1828.7 725.7 1874.3 706.3L1920 687L1920 1081L1874.3 1081C1828.7 1081 1737.3 1081 1645.8 1081C1554.3 1081 1462.7 1081 1371.2 1081C1279.7 1081 1188.3 1081 1097 1081C1005.7 1081 914.3 1081 823 1081C731.7 1081 640.3 1081 548.8 1081C457.3 1081 365.7 1081 274.2 1081C182.7 1081 91.3 1081 45.7 1081L0 1081Z" fill="#2a878c"></path><path d="M0 782L45.7 784.7C91.3 787.3 182.7 792.7 274.2 795.7C365.7 798.7 457.3 799.3 548.8 806.5C640.3 813.7 731.7 827.3 823 848.8C914.3 870.3 1005.7 899.7 1097 906.5C1188.3 913.3 1279.7 897.7 1371.2 874.5C1462.7 851.3 1554.3 820.7 1645.8 808.5C1737.3 796.3 1828.7 802.7 1874.3 805.8L1920 809L1920 1081L1874.3 1081C1828.7 1081 1737.3 1081 1645.8 1081C1554.3 1081 1462.7 1081 1371.2 1081C1279.7 1081 1188.3 1081 1097 1081C1005.7 1081 914.3 1081 823 1081C731.7 1081 640.3 1081 548.8 1081C457.3 1081 365.7 1081 274.2 1081C182.7 1081 91.3 1081 45.7 1081L0 1081Z" fill="#19787e"></path><path d="M0 997L45.7 987.8C91.3 978.7 182.7 960.3 274.2 942.5C365.7 924.7 457.3 907.3 548.8 908.5C640.3 909.7 731.7 929.3 823 942.8C914.3 956.3 1005.7 963.7 1097 958C1188.3 952.3 1279.7 933.7 1371.2 921.8C1462.7 910 1554.3 905 1645.8 914.3C1737.3 923.7 1828.7 947.3 1874.3 959.2L1920 971L1920 1081L1874.3 1081C1828.7 1081 1737.3 1081 1645.8 1081C1554.3 1081 1462.7 1081 1371.2 1081C1279.7 1081 1188.3 1081 1097 1081C1005.7 1081 914.3 1081 823 1081C731.7 1081 640.3 1081 548.8 1081C457.3 1081 365.7 1081 274.2 1081C182.7 1081 91.3 1081 45.7 1081L0 1081Z" fill="#006a71"></path></svg>